<svg width="170" height="32" viewBox="0 0 170 32" fill="none" xmlns="http://www.w3.org/2000/svg">
<path d="M11.8636 32C8.26057 32 5.37523 30.9451 3.20756 28.8352C1.06919 26.696 0 23.5751 0 19.4725V12.5275C0 8.42491 1.06919 5.31868 3.20756 3.20879C5.37523 1.0696 8.26057 0 11.8636 0C15.4373 0 18.1615 1.01099 20.0363 3.03297C21.9403 5.02564 22.8923 7.75092 22.8923 11.2088V11.4286H20.0802V11.1209C20.0802 8.60073 19.4065 6.54945 18.059 4.96703C16.7408 3.35531 14.6757 2.54945 11.8636 2.54945C9.02219 2.54945 6.79593 3.41392 5.18483 5.14286C3.60302 6.8718 2.81211 9.30403 2.81211 12.4396V19.5604C2.81211 22.696 3.60302 25.1282 5.18483 26.8571C6.79593 28.5861 9.02219 29.4505 11.8636 29.4505C14.6757 29.4505 16.7408 28.6593 18.059 27.0769C19.4065 25.4652 20.0802 23.3993 20.0802 20.8791V20.2198H22.8923V20.7912C22.8923 24.2491 21.9403 26.989 20.0363 29.011C18.1615 31.0037 15.4373 32 11.8636 32Z" fill="white"/>
<path d="M34.0845 31.3846L24.1981 0.615385H27.1421L36.3254 29.7582H36.8526L46.0359 0.615385H48.9799L39.0935 31.3846H34.0845Z" fill="white"/>
<path d="M51.7971 31.3846V0.615385H63.1774C64.9935 0.615385 66.6193 0.967033 68.0546 1.67033C69.5193 2.34432 70.6763 3.32601 71.5258 4.61539C72.3753 5.90476 72.8001 7.47253 72.8001 9.31868V9.84615C72.8001 11.6923 72.3607 13.2747 71.4819 14.5934C70.6324 15.8828 69.4753 16.8645 68.0107 17.5385C66.5753 18.2125 64.9642 18.5495 63.1774 18.5495H54.6092V31.3846H51.7971ZM54.6092 16H62.8698C65.0668 16 66.795 15.4579 68.0546 14.3736C69.3435 13.2894 69.988 11.7656 69.988 9.8022V9.36264C69.988 7.36997 69.3582 5.84616 68.0986 4.79121C66.8683 3.70696 65.1254 3.16484 62.8698 3.16484H54.6092V16Z" fill="white"/>
<path d="M158.8 0.615387H163.934V5.74359H158.8V0.615387Z" fill="white"/>
<path d="M158.8 10.8718H163.934V16H158.8V10.8718Z" fill="white"/>
<path d="M163.934 5.74359L169.067 5.74358V10.8718L163.934 10.8718V5.74359Z" fill="white"/>
<path d="M153.667 5.74358L158.8 5.74359V10.8718L153.667 10.8718V5.74358Z" fill="white"/>
<path d="M158.8 5.74359H163.934V10.8718H158.8V5.74359Z" fill="white"/>
<path d="M88.9461 32C86.6288 32 84.5756 31.5897 82.7863 30.7692C80.9971 29.9487 79.5891 28.7766 78.5625 27.2527C77.5652 25.6996 77.0666 23.8681 77.0666 21.7582V20.967H82.6983V21.5824C82.6983 23.2234 83.2703 24.5421 84.4143 25.5385C85.5582 26.5055 87.0688 26.989 88.9461 26.989C90.8527 26.989 92.3193 26.5348 93.3459 25.6264C94.4018 24.7179 94.9298 23.5751 94.9298 22.1978V21.7582C94.9298 20.8205 94.6952 20.0586 94.2259 19.4725C93.7565 18.8864 93.1259 18.4615 92.3339 18.1978C91.542 17.9048 90.6473 17.7582 89.65 17.7582H83.4903V11.6044L93.4339 6.32967V5.62637H77.8585V0.615384H99.6816V8.08791L90.398 13.011V13.7143H92.0259C93.4045 13.7143 94.7392 13.9927 96.0298 14.5495C97.3497 15.1062 98.435 15.9707 99.2856 17.1429C100.136 18.2857 100.562 19.7802 100.562 21.6264V22.1538C100.562 24.1465 100.078 25.8901 99.1096 27.3846C98.1417 28.8498 96.7777 29.9927 95.0178 30.8132C93.2872 31.6044 91.2633 32 88.9461 32Z" fill="white"/>
<path d="M113.867 32C111.52 32 109.481 31.5604 107.751 30.6813C106.02 29.8022 104.686 28.5861 103.747 27.033C102.808 25.4799 102.339 23.6923 102.339 21.6703V11.1648C102.339 8.67399 102.838 6.60806 103.835 4.96703C104.862 3.2967 106.255 2.05128 108.015 1.23077C109.804 0.410256 111.843 0 114.131 0C116.418 0 118.398 0.380953 120.07 1.14286C121.772 1.90476 123.077 3.00366 123.986 4.43956C124.925 5.87546 125.394 7.58974 125.394 9.58242H119.674C119.674 8.35165 119.249 7.28205 118.398 6.37363C117.548 5.4652 116.125 5.01099 114.131 5.01099C112.165 5.01099 110.64 5.52381 109.555 6.54945C108.499 7.57509 107.971 8.99634 107.971 10.8132V13.978H108.763C109.261 13.3919 110.024 12.8352 111.051 12.3077C112.077 11.7802 113.573 11.5165 115.538 11.5165C117.328 11.5165 118.97 11.8974 120.466 12.6593C121.992 13.4212 123.223 14.5348 124.162 16C125.101 17.4359 125.57 19.1795 125.57 21.2308V21.7582C125.57 23.7802 125.086 25.5678 124.118 27.1209C123.15 28.6447 121.786 29.8462 120.026 30.7253C118.266 31.5751 116.213 32 113.867 32ZM113.955 26.989C115.802 26.989 117.254 26.5055 118.31 25.5385C119.396 24.5714 119.938 23.2821 119.938 21.6703V21.3187C119.938 20.2344 119.689 19.2967 119.19 18.5055C118.721 17.7143 118.032 17.0989 117.122 16.6593C116.242 16.2198 115.186 16 113.955 16C112.752 16 111.696 16.2198 110.787 16.6593C109.877 17.0989 109.173 17.7143 108.675 18.5055C108.205 19.2967 107.971 20.2344 107.971 21.3187V21.6703C107.971 23.2821 108.499 24.5714 109.555 25.5385C110.64 26.5055 112.107 26.989 113.955 26.989Z" fill="white"/>
<path d="M139.393 32C135.756 32 132.837 31.0037 130.637 29.011C128.437 26.989 127.337 23.9414 127.337 19.8681V12.1319C127.337 8.17582 128.437 5.17216 130.637 3.12088C132.837 1.04029 135.756 0 139.393 0C143.059 0 145.978 1.04029 148.148 3.12088C150.348 5.17216 151.448 8.17582 151.448 12.1319V19.8681C151.448 23.9414 150.348 26.989 148.148 29.011C145.978 31.0037 143.059 32 139.393 32ZM139.393 26.989C141.593 26.989 143.206 26.3883 144.232 25.1868C145.288 23.9853 145.816 22.2711 145.816 20.044V11.8681C145.816 9.61172 145.23 7.91209 144.056 6.76923C142.913 5.59707 141.358 5.01099 139.393 5.01099C137.369 5.01099 135.785 5.61172 134.641 6.81319C133.526 8.01465 132.969 9.69963 132.969 11.8681V20.044C132.969 22.359 133.497 24.1026 134.553 25.2747C135.638 26.4176 137.251 26.989 139.393 26.989Z" fill="white"/>
</svg>
