<svg width="211" height="40" viewBox="0 0 211 40" fill="none" xmlns="http://www.w3.org/2000/svg">
<path d="M14.8061 40C10.3094 40 6.70844 38.6813 4.00313 36.044C1.33438 33.37 0 29.4689 0 24.3407V15.6593C0 10.5311 1.33438 6.64835 4.00313 4.01099C6.70844 1.337 10.3094 0 14.8061 0C19.2662 0 22.6661 1.26374 25.0058 3.79121C27.3821 6.28205 28.5703 9.68864 28.5703 14.011V14.2857H25.0607V13.9011C25.0607 10.7509 24.2198 8.18681 22.5382 6.20879C20.893 4.19414 18.3157 3.18681 14.8061 3.18681C11.2599 3.18681 8.48152 4.2674 6.47081 6.42857C4.49667 8.58974 3.50959 11.63 3.50959 15.5494V24.4505C3.50959 28.37 4.49667 31.4103 6.47081 33.5714C8.48152 35.7326 11.2599 36.8132 14.8061 36.8132C18.3157 36.8132 20.893 35.8242 22.5382 33.8462C24.2198 31.8315 25.0607 29.2491 25.0607 26.0989V25.2747H28.5703V25.989C28.5703 30.3114 27.3821 33.7363 25.0058 36.2637C22.6661 38.7546 19.2662 40 14.8061 40Z" fill="#292D32"/>
<path d="M42.5384 39.2308L30.2 0.769231H33.8741L45.3351 37.1978H45.9931L57.4542 0.769231H61.1283L48.7898 39.2308H42.5384Z" fill="#292D32"/>
<path d="M64.6443 39.2308V0.769231H78.8472C81.1138 0.769231 83.1427 1.20879 84.9341 2.08791C86.762 2.9304 88.2061 4.15751 89.2663 5.76923C90.3265 7.38095 90.8565 9.34066 90.8565 11.6484V12.3077C90.8565 14.6154 90.3082 16.5934 89.2114 18.2418C88.1512 19.8535 86.7072 21.0806 84.8793 21.9231C83.0879 22.7656 81.0772 23.1868 78.8472 23.1868H68.1539V39.2308H64.6443ZM68.1539 20H78.4633C81.2052 20 83.3621 19.3223 84.9341 17.967C86.5427 16.6117 87.347 14.707 87.347 12.2527V11.7033C87.347 9.21246 86.561 7.30769 84.9889 5.98901C83.4535 4.6337 81.2783 3.95605 78.4633 3.95605H68.1539V20Z" fill="#292D32"/>
<path d="M198.188 0.769233H204.594V7.17949H198.188V0.769233Z" fill="url(#paint0_linear_175_78)"/>
<path d="M198.188 13.5898H204.594V20H198.188V13.5898Z" fill="url(#paint1_linear_175_78)"/>
<path d="M204.594 7.17949L211 7.17948V13.5897L204.594 13.5898V7.17949Z" fill="url(#paint2_linear_175_78)"/>
<path d="M191.781 7.17948L198.188 7.17949V13.5898L191.781 13.5897V7.17948Z" fill="url(#paint3_linear_175_78)"/>
<path d="M198.188 7.17949H204.594V13.5898H198.188V7.17949Z" fill="url(#paint4_linear_175_78)"/>
<path d="M111.007 40C108.115 40 105.553 39.4872 103.32 38.4615C101.087 37.4359 99.3295 35.9707 98.0482 34.0659C96.8036 32.1245 96.1813 29.8352 96.1813 27.1978V26.2088H103.21V26.978C103.21 29.0293 103.924 30.6777 105.351 31.9231C106.779 33.1319 108.664 33.7363 111.007 33.7363C113.387 33.7363 115.217 33.1685 116.498 32.033C117.816 30.8974 118.475 29.4689 118.475 27.7472V27.1978C118.475 26.0256 118.182 25.0733 117.597 24.3407C117.011 23.6081 116.224 23.0769 115.235 22.7473C114.247 22.381 113.13 22.1978 111.886 22.1978H104.198V14.5055L116.608 7.91209V7.03297H97.1697V0.769231H124.405V10.1099L112.819 16.2637V17.1429H114.851C116.572 17.1429 118.237 17.4908 119.848 18.1868C121.495 18.8828 122.85 19.9634 123.911 21.4286C124.973 22.8571 125.504 24.7253 125.504 27.033V27.6923C125.504 30.1831 124.9 32.3626 123.692 34.2308C122.484 36.0623 120.781 37.4908 118.585 38.5165C116.425 39.5055 113.899 40 111.007 40Z" fill="url(#paint5_linear_175_78)"/>
<path d="M142.109 40C139.18 40 136.636 39.4505 134.476 38.3516C132.316 37.2527 130.651 35.7326 129.479 33.7912C128.308 31.8498 127.722 29.6154 127.722 27.0879V13.956C127.722 10.8425 128.344 8.26007 129.589 6.20879C130.87 4.12088 132.609 2.5641 134.806 1.53846C137.039 0.51282 139.583 0 142.438 0C145.294 0 147.765 0.476191 149.851 1.42857C151.974 2.38095 153.603 3.75458 154.738 5.54945C155.91 7.34432 156.495 9.48718 156.495 11.978H149.357C149.357 10.4396 148.826 9.10256 147.765 7.96703C146.703 6.8315 144.927 6.26374 142.438 6.26374C139.985 6.26374 138.082 6.90476 136.727 8.18682C135.41 9.46887 134.751 11.2454 134.751 13.5165V17.4725H135.739C136.361 16.7399 137.313 16.044 138.594 15.3846C139.876 14.7253 141.743 14.3956 144.195 14.3956C146.428 14.3956 148.478 14.8718 150.345 15.8242C152.249 16.7766 153.786 18.1685 154.958 20C156.129 21.7949 156.715 23.9744 156.715 26.5385V27.1978C156.715 29.7253 156.111 31.9597 154.903 33.9011C153.695 35.8059 151.993 37.3077 149.796 38.4066C147.6 39.4689 145.037 40 142.109 40ZM142.219 33.7363C144.525 33.7363 146.337 33.1319 147.655 31.9231C149.009 30.7143 149.686 29.1026 149.686 27.0879V26.6483C149.686 25.293 149.375 24.1209 148.753 23.1319C148.167 22.1429 147.307 21.3736 146.172 20.8242C145.074 20.2747 143.756 20 142.219 20C140.718 20 139.4 20.2747 138.265 20.8242C137.13 21.3736 136.252 22.1429 135.629 23.1319C135.043 24.1209 134.751 25.293 134.751 26.6483V27.0879C134.751 29.1026 135.41 30.7143 136.727 31.9231C138.082 33.1319 139.912 33.7363 142.219 33.7363Z" fill="url(#paint6_linear_175_78)"/>
<path d="M173.966 40C169.427 40 165.784 38.7546 163.039 36.2637C160.293 33.7363 158.92 29.9267 158.92 24.8352V15.1648C158.92 10.2198 160.293 6.4652 163.039 3.9011C165.784 1.30037 169.427 0 173.966 0C178.542 0 182.184 1.30037 184.893 3.9011C187.639 6.4652 189.012 10.2198 189.012 15.1648V24.8352C189.012 29.9267 187.639 33.7363 184.893 36.2637C182.184 38.7546 178.542 40 173.966 40ZM173.966 33.7363C176.712 33.7363 178.725 32.9853 180.006 31.4835C181.324 29.9817 181.983 27.8388 181.983 25.0549V14.8352C181.983 12.0147 181.251 9.89011 179.787 8.46154C178.359 6.99634 176.419 6.26374 173.966 6.26374C171.44 6.26374 169.463 7.01465 168.036 8.51648C166.645 10.0183 165.949 12.1245 165.949 14.8352V25.0549C165.949 27.9487 166.608 30.1282 167.926 31.5934C169.28 33.022 171.294 33.7363 173.966 33.7363Z" fill="url(#paint7_linear_175_78)"/>
<defs>
<linearGradient id="paint0_linear_175_78" x1="95" y1="20" x2="211" y2="20" gradientUnits="userSpaceOnUse">
<stop stop-color="#FF0000"/>
<stop offset="1" stop-color="#DB0071"/>
</linearGradient>
<linearGradient id="paint1_linear_175_78" x1="95" y1="20" x2="211" y2="20" gradientUnits="userSpaceOnUse">
<stop stop-color="#FF0000"/>
<stop offset="1" stop-color="#DB0071"/>
</linearGradient>
<linearGradient id="paint2_linear_175_78" x1="95" y1="20" x2="211" y2="20" gradientUnits="userSpaceOnUse">
<stop stop-color="#FF0000"/>
<stop offset="1" stop-color="#DB0071"/>
</linearGradient>
<linearGradient id="paint3_linear_175_78" x1="95" y1="20" x2="211" y2="20" gradientUnits="userSpaceOnUse">
<stop stop-color="#FF0000"/>
<stop offset="1" stop-color="#DB0071"/>
</linearGradient>
<linearGradient id="paint4_linear_175_78" x1="95" y1="20" x2="211" y2="20" gradientUnits="userSpaceOnUse">
<stop stop-color="#FF0000"/>
<stop offset="1" stop-color="#DB0071"/>
</linearGradient>
<linearGradient id="paint5_linear_175_78" x1="95" y1="20" x2="211" y2="20" gradientUnits="userSpaceOnUse">
<stop stop-color="#FF0000"/>
<stop offset="1" stop-color="#DB0071"/>
</linearGradient>
<linearGradient id="paint6_linear_175_78" x1="95" y1="20" x2="211" y2="20" gradientUnits="userSpaceOnUse">
<stop stop-color="#FF0000"/>
<stop offset="1" stop-color="#DB0071"/>
</linearGradient>
<linearGradient id="paint7_linear_175_78" x1="95" y1="20" x2="211" y2="20" gradientUnits="userSpaceOnUse">
<stop stop-color="#FF0000"/>
<stop offset="1" stop-color="#DB0071"/>
</linearGradient>
</defs>
</svg>
